<svg width="24" height="24" viewBox="0 0 24 24" fill="none" xmlns="http://www.w3.org/2000/svg">
                      <path fill-rule="evenodd" clip-rule="evenodd" d="M12.0008 0C8.9694 0 6.30078 2.20175 6.30078 5.16456C6.30078 8.12737 8.9694 10.3291 12.0008 10.3291C15.0321 10.3291 17.7008 8.12737 17.7008 5.16456C17.7008 2.20175 15.0321 0 12.0008 0Z" fill="var(--color-info)" fill-opacity="0.2"></path>
                      <path d="M18.8647 24H5.13221C4.82222 24 4.66724 24 4.53683 23.9855C3.41845 23.8613 2.53538 22.967 2.41274 21.8346C2.39844 21.7025 2.39844 21.5455 2.39844 21.2316V20.6196C2.39844 18.1066 3.68991 15.7746 5.80743 14.4642C9.60803 12.1122 14.3888 12.1122 18.1895 14.4642C20.307 15.7746 21.5984 18.1066 21.5984 20.6196V21.2316C21.5984 21.5455 21.5984 21.7025 21.5842 21.8346C21.4615 22.967 20.5784 23.8613 19.46 23.9855C19.3296 24 19.1747 24 18.8647 24Z" fill="var(--color-info)"></path>
                    </svg>