<svg width="24" height="24" viewBox="0 0 24 24" fill="none" xmlns="http://www.w3.org/2000/svg">
                      <g clip-path="url(#clip0_10365_69301)">
                        <path d="M9.23174 8.65287e-07H14.7652C15.0002 -1.24817e-05 15.2162 -2.474e-05 15.3976 0.0125662C15.5926 0.026096 15.8069 0.0569196 16.0246 0.148703C16.4951 0.34697 16.8689 0.727265 17.0638 1.20593C17.1293 1.36687 17.1631 1.52597 17.1818 1.67698C17.7354 1.6844 18.1655 1.7125 18.549 1.81704C19.9687 2.20411 21.0778 3.33246 21.4582 4.77702C21.5989 5.31134 21.5987 5.9344 21.5984 6.84746V16.5264C21.5984 18.0529 21.5984 19.2835 21.4705 20.2512C21.3378 21.2561 21.0538 22.1021 20.3934 22.774C19.7329 23.4458 18.9014 23.7348 17.914 23.8699C16.9627 24 15.7534 24 14.2529 24H9.74396C8.24353 24 7.03413 24 6.08295 23.8699C5.09541 23.7348 4.26392 23.4458 3.60353 22.774C2.94314 22.1021 2.6591 21.2561 2.52634 20.2512C2.39845 19.2835 2.39848 18.0529 2.39849 16.5264L2.39846 6.84748C2.39818 5.9344 2.39797 5.31134 2.53868 4.77703C2.91912 3.33246 4.02811 2.20411 5.4479 1.81704C5.83141 1.71248 6.26143 1.6844 6.81501 1.67696C6.83377 1.52596 6.86768 1.36687 6.9332 1.20593C7.12807 0.727265 7.50185 0.34697 7.97229 0.148703C8.19008 0.0569196 8.40439 0.026096 8.59929 0.0125662C8.78066 -2.474e-05 8.99666 -1.24818e-05 9.23174 8.65287e-07Z" fill="var(--color-warning)" fill-opacity="0.2"></path>
                        <path fill-rule="evenodd" clip-rule="evenodd" d="M8.45679 1.84323C8.48452 1.77755 8.53596 1.7252 8.60051 1.69698C8.60859 1.6949 8.63975 1.68809 8.71307 1.683C8.83157 1.67477 8.9905 1.67432 9.25736 1.67432H14.743C15.0099 1.67432 15.1688 1.67477 15.2874 1.683C15.3607 1.68809 15.3919 1.6949 15.3999 1.69698C15.4645 1.7252 15.5158 1.77755 15.5437 1.84323C15.5457 1.85144 15.5523 1.88314 15.5574 1.95774C15.5654 2.07831 15.5659 2.24002 15.5659 2.51153C15.5659 2.78304 15.5654 2.94476 15.5574 3.06532C15.5523 3.13991 15.5457 3.17162 15.5437 3.17984C15.5158 3.24551 15.4645 3.29786 15.3999 3.32608C15.3919 3.32816 15.3607 3.33497 15.2874 3.34006C15.1688 3.34829 15.0099 3.34874 14.743 3.34874H9.25736C8.9905 3.34874 8.83157 3.34829 8.71307 3.34006C8.63975 3.33497 8.60859 3.32816 8.60051 3.32608C8.53596 3.29786 8.48452 3.24551 8.45679 3.17984C8.45474 3.17163 8.44804 3.13992 8.44304 3.06532C8.43495 2.94476 8.4345 2.78304 8.4345 2.51153C8.4345 2.24002 8.43495 2.07831 8.44304 1.95774C8.44804 1.88314 8.45474 1.85144 8.45679 1.84323ZM14.2789 11.1646C14.582 10.7642 15.1472 10.6894 15.5408 10.9989C15.9334 11.3077 16.0058 11.8815 15.7033 12.281L12.106 17.0339C11.9834 17.196 11.8404 17.3851 11.6965 17.5283C11.5251 17.6987 11.2415 17.919 10.8289 17.9398C10.4163 17.9606 10.1127 17.7698 9.92553 17.6176C9.7684 17.4896 9.60773 17.3158 9.47003 17.1667L7.81082 15.3731C7.47093 15.0056 7.48754 14.4275 7.84816 14.0809C8.2096 13.7336 8.77934 13.7508 9.11998 14.119L10.7275 15.8567L14.2789 11.1646Z" fill="var(--color-warning)"></path>
                      </g>
                      <defs>
                        <clipPath id="clip0_10365_69301">
                          <rect width="24" height="24" fill="white"></rect>
                        </clipPath>
                      </defs>
                    </svg>