<svg width="24" height="24" viewBox="0 0 24 24" fill="none" xmlns="http://www.w3.org/2000/svg">
                      <path d="M19.2578 15.0293C19.7389 15.4379 20.404 15.7721 21.09 16.0383C22.2274 16.4799 22.7962 16.7007 22.7962 16.878C22.7962 17.0552 22.2274 17.276 21.09 17.7176C20.404 17.9839 19.7389 18.3181 19.2578 18.7267C18.6023 19.2833 18.1028 20.1351 17.7307 21.0055C17.2193 22.2019 16.9636 22.8001 16.7926 22.8001C16.6216 22.8001 16.3658 22.2019 15.8544 21.0055C15.4824 20.1351 14.9828 19.2833 14.3274 18.7267C13.8462 18.3181 13.1812 17.9839 12.4951 17.7176C11.3578 17.276 10.7891 17.0552 10.7891 16.878C10.7891 16.7007 11.3578 16.4799 12.4951 16.0383C13.1812 15.7721 13.8462 15.4379 14.3274 15.0293C14.9828 14.4727 15.4824 13.6208 15.8544 12.7505C16.3658 11.554 16.6216 10.9558 16.7926 10.9558C16.9636 10.9558 17.2193 11.554 17.7307 12.7505C18.1028 13.6208 18.6023 14.4727 19.2578 15.0293Z" fill="var(--color-success)"></path>
                      <path d="M9.25034 1.24489C8.79575 1.19992 8.24783 1.19993 7.60355 1.19995H6.84164C5.76257 1.19992 4.86271 1.19989 4.14836 1.29592C3.39437 1.39728 2.71363 1.62025 2.1666 2.16721C1.61957 2.71417 1.39657 3.39484 1.2952 4.14874C1.19916 4.86299 1.19919 5.7627 1.19922 6.84166V14.7573C1.1992 16.3995 1.19918 17.7234 1.33918 18.7645C1.48452 19.8454 1.79545 20.7555 2.51837 21.4784C3.24128 22.2012 4.15152 22.5121 5.23256 22.6574C6.27382 22.7973 7.59774 22.7973 9.24025 22.7973H14.6704C14.5358 22.5016 14.3853 22.1498 14.2221 21.7678L14.1988 21.7134C13.8698 20.9437 13.5051 20.3907 13.1621 20.0995C12.9046 19.8808 12.4547 19.6336 11.8441 19.3966L11.7852 19.3737C11.2672 19.1727 10.7944 18.9892 10.4553 18.8311C10.2881 18.7532 10.0473 18.6339 9.82592 18.4704C9.71401 18.3877 9.53503 18.2419 9.37165 18.0224C9.20309 17.7961 8.98844 17.4038 8.98844 16.8778C8.98844 16.3518 9.20309 15.9595 9.37165 15.7332C9.53503 15.5138 9.71401 15.3679 9.82592 15.2852C10.0473 15.1216 10.2881 15.0024 10.4553 14.9245C10.7944 14.7664 11.2672 14.5828 11.7852 14.3818L11.8441 14.359C12.4547 14.1219 12.9046 13.8747 13.1621 13.6561C13.5051 13.3648 13.8698 12.812 14.1988 12.0422L14.2221 11.9877C14.4578 11.4362 14.6668 10.9474 14.84 10.6001C14.9253 10.4292 15.0477 10.1976 15.2048 9.98795C15.2829 9.88364 15.422 9.71303 15.6281 9.5548C15.8309 9.3991 16.2326 9.15431 16.7935 9.15431C17.3545 9.15431 17.7561 9.3991 17.9589 9.5548C18.1651 9.71303 18.3041 9.88364 18.3823 9.98795C18.5393 10.1976 18.6617 10.4292 18.7469 10.6001C18.9202 10.9474 19.1293 11.4363 19.3649 11.9877L19.3882 12.0422C19.7173 12.812 20.0819 13.3648 20.4249 13.6561C20.6824 13.8747 21.1323 14.1219 21.743 14.359L21.8018 14.3818C22.1671 14.5236 22.5099 14.6566 22.7992 14.7782C22.7992 14.7712 22.7992 14.7643 22.7992 14.7573V13.0892C22.7992 11.4469 22.7992 10.1232 22.6593 9.08204C22.514 8.00112 22.2029 7.091 21.4801 6.36817C20.7572 5.64534 19.847 5.33444 18.7659 5.18911C17.7247 5.04914 16.4007 5.04916 14.7583 5.04918L13.9431 5.04919C13.5855 5.04919 13.3822 5.04817 13.2317 5.03328C13.1643 5.02661 13.1283 5.01877 13.1107 5.01384C13.1024 5.01154 13.0971 5.0094 13.0971 5.0094L13.0954 5.00863L13.094 5.0076C13.094 5.0076 13.0895 5.00406 13.0834 4.99801C13.0703 4.9851 13.0457 4.95782 13.0065 4.90258C12.9189 4.77931 12.8171 4.60334 12.6397 4.29284L12.4937 4.03754C12.1741 3.47819 11.9023 3.0025 11.6377 2.63014C11.3558 2.2335 11.0429 1.89546 10.6132 1.64608C10.1834 1.39669 9.73462 1.2928 9.25034 1.24489Z" fill="var(--color-success)" fill-opacity="0.2"></path>
                    </svg>