<svg width="24" height="24" viewBox="0 0 24 24" fill="none" xmlns="http://www.w3.org/2000/svg">
                      <path d="M11.4573 1.25758C11.8145 1.18074 12.1839 1.18074 12.5411 1.25758C13.3358 1.42852 13.8494 2.05546 14.2521 2.7176C14.6595 3.38756 15.0881 4.32979 15.6148 5.48728L15.64 5.54273C15.9953 6.32383 16.0799 6.4669 16.1849 6.5602C16.2259 6.59654 16.2701 6.62892 16.3171 6.65687C16.4377 6.72862 16.5989 6.76535 17.4465 6.8643L17.654 6.88852C18.8462 7.02769 19.817 7.14101 20.5412 7.3117C21.2559 7.48014 21.9746 7.75414 22.3897 8.40566C22.6303 8.7833 22.7702 9.21698 22.796 9.6649C22.8405 10.4377 22.4191 11.0847 21.9392 11.6439C21.4529 12.2107 20.7337 12.8769 19.8503 13.6952L19.8081 13.7343C19.1483 14.3455 19.0335 14.478 18.9779 14.6127C18.9501 14.68 18.9309 14.7506 18.9206 14.8227C18.8999 14.9671 18.9314 15.1401 19.1882 16.0051L19.2411 16.1833C19.6507 17.5632 19.9829 18.682 20.1233 19.5454C20.2617 20.3958 20.2709 21.3008 19.6617 21.981C19.5077 22.1529 19.3317 22.3035 19.1383 22.4288C18.3731 22.924 17.4877 22.7686 16.6766 22.4937C15.8533 22.2145 14.8103 21.7034 13.5242 21.0733L13.1301 20.8802C12.3244 20.4854 12.1633 20.4286 12.0135 20.4274L11.9933 20.4276C11.8436 20.4298 11.6829 20.488 10.8803 20.8892L10.5256 21.0666C9.22663 21.7161 8.17375 22.2424 7.34263 22.5312C6.5247 22.8153 5.62982 22.9785 4.8566 22.4761C4.67343 22.357 4.50589 22.2153 4.35794 22.054C3.73339 21.3735 3.73904 20.4578 3.87626 19.5976C4.0157 18.7236 4.3495 17.5887 4.76139 16.1884L4.81549 16.0045C5.06974 15.14 5.1007 14.9672 5.07979 14.823C5.06939 14.7513 5.05017 14.6812 5.02257 14.6144C4.96699 14.4799 4.85229 14.3475 4.19336 13.7372L4.15111 13.698C3.26647 12.8785 2.54615 12.2113 2.05929 11.6437C1.57882 11.0836 1.15704 10.4355 1.2026 9.66158C1.22882 9.21595 1.36804 8.78452 1.60695 8.40846C2.02189 7.75537 2.74141 7.48072 3.45709 7.31194C4.18228 7.1409 5.15452 7.02742 6.34858 6.88804L6.5519 6.8643C7.39947 6.76535 7.56073 6.72862 7.6813 6.65687C7.72828 6.62892 7.77253 6.59654 7.81344 6.5602C7.91847 6.4669 8.00299 6.32383 8.35837 5.54273L8.38355 5.48737C8.91017 4.32984 9.33885 3.38758 9.74632 2.7176C10.149 2.05546 10.6626 1.42852 11.4573 1.25758Z" fill="var(--color-error)" fill-opacity="0.2"></path>
                    </svg>