<svg xmlns="http://www.w3.org/2000/svg" width="44" height="44" viewBox="0 0 44 44" fill="none">
              <path d="M43.7439 15.8722C39.2617 9.50491 30.5657 7.88397 24.103 12.1096L16.1008 0.741833C9.73347 5.22401 8.11253 13.92 12.3382 20.3827L0.970393 28.3849C5.45257 34.7522 14.1486 36.3732 20.6113 32.1475L28.6134 43.5153C34.9808 39.0331 36.6017 30.3371 32.3761 23.8744L43.7439 15.8722Z" fill="#76717F" fill-opacity="0.3"></path>
              <path d="M23.9724 12.7927L24.3762 12.5278C30.4754 8.53984 38.6342 9.94803 43.0384 15.7566L32.0883 23.4656L31.693 23.7438L31.9579 24.1476C35.946 30.247 34.5371 38.4056 28.7282 42.8097L20.7419 31.4645L20.3381 31.7293C14.2385 35.7175 6.07902 34.3089 1.67505 28.4994L12.6259 20.7916L13.0212 20.5133L12.7564 20.1095C8.76827 14.0101 10.1763 5.85039 15.9853 1.44633L23.9724 12.7927Z" stroke="#76717F" stroke-opacity="0.2"></path>
            </svg>