<svg class="intersect-once intersect:motion-preset-focus-md intersect:motion-duration-800 intersect:motion-opacity-0 intersect:motion-delay-1100 absolute ji837 ya4qk cw4j5" xmlns="http://www.w3.org/2000/svg" width="168" height="86" viewBox="0 0 168 86" fill="none" no-intersect="">
                  <path opacity="0.1" fill-rule="evenodd" clip-rule="evenodd" d="M133.684 78.3468L83.1004 32.5189C82.712 32.1671 82.1178 32.1747 81.7387 32.5365L35.4116 76.7407C35.2256 76.9182 34.9784 77.0172 34.7213 77.0172H1.00201C0.0901972 77.0172 -0.34591 75.8967 0.325999 75.2803L81.7411 0.591237C82.1211 0.242619 82.7039 0.240148 83.0868 0.585536L167.66 76.8631C168.34 77.4766 167.906 78.6057 166.99 78.6057H134.356C134.108 78.6057 133.868 78.5134 133.684 78.3468ZM82.8091 54.9463L117.559 84.0642C118.275 84.664 117.85 85.8307 116.917 85.8307H50.8922C49.984 85.8307 49.546 84.7176 50.2108 84.0988L81.4855 54.9809C81.8548 54.637 82.4224 54.6222 82.8091 54.9463Z" fill="white"></path>
                </svg>